<svg xmlns="http://www.w3.org/2000/svg" viewBox="0 0 71.65 71.65"><defs><style>.cls-1{fill:none;stroke:#000;stroke-linecap:round;stroke-linejoin:round;stroke-width:4px;}</style></defs><title>Ресурс 10</title><g id="Шар_2" data-name="Шар 2"><g id="OBJECTS"><path d="M32.06,34.46s3.7-.29,3.7-4.82-3-6.73-6.87-6.73H16.26v25.3H28.89s7.71.25,7.71-7.47C36.6,40.74,36.94,34.46,32.06,34.46ZM21.82,27.4h7.07s1.72,0,1.72,2.63-1,3-2.16,3H21.82Zm6.71,16.31H21.82V37h7.07s2.56,0,2.56,3.47C31.45,43.38,29.54,43.69,28.53,43.71Z"/><path d="M46.88,29.34c-9.33,0-9.33,9.72-9.33,9.72s-.63,9.67,9.33,9.67c0,0,8.31.5,8.31-6.72H50.92s.14,2.72-3.89,2.72a4,4,0,0,1-4.28-4.41H55.32S56.71,29.34,46.88,29.34ZM50.68,37h-8s.52-3.9,4.27-3.9S50.68,37,50.68,37Z"/><rect x="41.66" y="24.4" width="10.01" height="3.12"/><rect class="cls-1" x="2" y="2" width="67.65" height="67.65" rx="12.61" ry="12.61"/></g></g></svg>