<svg xmlns="http://www.w3.org/2000/svg" viewBox="0 0 71.65 71.65"><defs><style>.cls-1{fill:none;stroke:#000;stroke-linecap:round;stroke-linejoin:round;stroke-width:4px;}</style></defs><title>sm-logo-2</title><g id="Шар_2" data-name="Шар 2"><g id="OBJECTS"><path d="M15,48.93a17.64,17.64,0,0,0,12.29-3.34c-.8-.2-1.49-.34-2.14-.55a8.42,8.42,0,0,1-5.29-4.76c-.33-.73-.26-.79.53-.77A6.38,6.38,0,0,0,23,39.27a8.67,8.67,0,0,1-3.68-2,8.28,8.28,0,0,1-2.74-5.57c-.06-.89.05-.95.85-.59a6.08,6.08,0,0,0,2.57.6c-.61-.71-1.27-1.21-1.75-1.9a8.47,8.47,0,0,1-.89-8.62c.34-.81.48-.84,1.06-.18a24.47,24.47,0,0,0,10.37,7,24.3,24.3,0,0,0,5.53,1.22c1,.1,1,0,.94-.95a8.76,8.76,0,0,1,4.62-8.55,8.66,8.66,0,0,1,9.63,1.16,1.51,1.51,0,0,0,1.58.38,18.54,18.54,0,0,0,3.81-1.47c.18-.1.35-.31.7-.18A9.25,9.25,0,0,1,52.46,24a16.7,16.7,0,0,0,4.15-1.12,1.33,1.33,0,0,1-.44,1,15.16,15.16,0,0,1-2.93,3,1.61,1.61,0,0,0-.69,1.47A24.18,24.18,0,0,1,47.4,43.53a22.93,22.93,0,0,1-16.12,9.18,24.44,24.44,0,0,1-15.46-3.13c-.18-.1-.34-.21-.51-.32A3,3,0,0,1,15,48.93Z"/><rect class="cls-1" x="2" y="2" width="67.65" height="67.65" rx="12.61" ry="12.61"/></g></g></svg>