<svg xmlns="http://www.w3.org/2000/svg" viewBox="0 0 71.65 71.65"><defs><style>.cls-1{fill:none;stroke:#000;stroke-linecap:round;stroke-linejoin:round;stroke-width:4px;}</style></defs><title>sm-logo-1</title><g id="Шар_2" data-name="Шар 2"><g id="OBJECTS"><path d="M26.34,22.54a3.59,3.59,0,0,1-3.8,3.8,3.65,3.65,0,0,1-3.79-3.61,3.84,3.84,0,0,1,3.79-4A3.69,3.69,0,0,1,26.34,22.54Z"/><rect x="18.75" y="28.23" width="7.59" height="24.67"/><path d="M44.55,28.61a8.32,8.32,0,0,0-7.21,3.8h-.19l-.38-3.23H29.94c0,2.09.19,4.56.19,7.4V52.9h7.59V39.43a5.86,5.86,0,0,1,.19-1.9c.57-1.33,1.52-3,3.61-3,2.65,0,3.79,2.27,3.79,5.31V52.9H52.9v-14C52.9,31.84,49.3,28.61,44.55,28.61Z"/><rect class="cls-1" x="2" y="2" width="67.65" height="67.65" rx="12.61" ry="12.61"/></g></g></svg>