<svg xmlns="http://www.w3.org/2000/svg" viewBox="0 0 71.65 71.65"><defs><style>.cls-1,.cls-2{fill:none;stroke:#000;stroke-linecap:round;stroke-linejoin:round;}.cls-1{stroke-width:3px;}.cls-2{stroke-width:4px;}</style></defs><title>Ресурс 12</title><g id="Шар_2" data-name="Шар 2"><g id="OBJECTS"><path class="cls-1" d="M25.76,52.57l.63.38a19.88,19.88,0,1,0-6.53-6.23l.4.6-2.53,8.2Z"/><path d="M28.13,24.3a3.36,3.36,0,0,0-1.37,1,6.37,6.37,0,0,0-1.88,4.41c-.09,2.06.72,4.33,2.53,7.14,3,4.68,6.08,7.43,10.12,9.11a20.39,20.39,0,0,0,4.3,1.44A7.28,7.28,0,0,0,44.64,47a7.07,7.07,0,0,0,2.23-1.46,6.58,6.58,0,0,0,1.31-3.73c0-.5,0-.57-.19-.77a34.13,34.13,0,0,0-5.46-2.85c-.48-.06-.68.07-1.48,1C39.8,40.62,39.41,41,39.19,41a13.83,13.83,0,0,1-2.81-1.41,15.75,15.75,0,0,1-5-5.49,1.69,1.69,0,0,1-.19-.41,3.57,3.57,0,0,1,.51-.63,5.24,5.24,0,0,0,1.18-1.77c.33-.79.32-1-.12-2.18-.63-1.72-.83-2.26-1.18-3.18s-.63-1.39-1-1.54A8,8,0,0,0,28.13,24.3Z"/><rect class="cls-2" x="2" y="2" width="67.65" height="67.65" rx="12.61" ry="12.61"/></g></g></svg>