<svg xmlns="http://www.w3.org/2000/svg" viewBox="0 0 71.65 71.65"><defs><style>.cls-1{fill:none;stroke:#000;stroke-linecap:round;stroke-linejoin:round;stroke-width:4px;}</style></defs><title>Ресурс 8</title><g id="Шар_2" data-name="Шар 2"><g id="OBJECTS"><path d="M35.82,11.82a20.41,20.41,0,1,0,0,40.81v7.2c8.09-4,20.65-12.73,20.65-27.61A20.52,20.52,0,0,0,35.82,11.82ZM33.42,35.2a6.13,6.13,0,0,1-5.57,6.1.51.51,0,0,1-.54-.51v-2a.51.51,0,0,1,.44-.5,3,3,0,0,0,2.51-2.42H25.58a1.75,1.75,0,0,1-1.76-1.75V28a1.76,1.76,0,0,1,1.76-1.76h6.09A1.75,1.75,0,0,1,33.42,28Zm14.41,0a6.13,6.13,0,0,1-5.57,6.1.52.52,0,0,1-.55-.51v-2a.51.51,0,0,1,.44-.5,3.05,3.05,0,0,0,2.52-2.42H40a1.75,1.75,0,0,1-1.75-1.75V28A1.75,1.75,0,0,1,40,26.22h6.09A1.76,1.76,0,0,1,47.83,28Z"/><rect class="cls-1" x="2" y="2" width="67.65" height="67.65" rx="12.61" ry="12.61"/></g></g></svg>