<svg xmlns="http://www.w3.org/2000/svg" viewBox="0 0 71.65 71.65"><defs><style>.cls-1{fill:none;stroke:#000;stroke-linecap:round;stroke-linejoin:round;stroke-width:4px;}</style></defs><title>Ресурс 7</title><g id="Шар_2" data-name="Шар 2"><g id="OBJECTS"><path d="M35.82,12.53a23.3,23.3,0,1,0,23.3,23.3A23.3,23.3,0,0,0,35.82,12.53ZM51.19,23.19a19.77,19.77,0,0,1,4.52,12.43A46.27,46.27,0,0,0,41.86,35c-.15-.34-.28-.69-.43-1C41,33,40.57,32,40.1,31.06,48,27.85,51.14,23.25,51.19,23.19ZM35.82,15.93A19.79,19.79,0,0,1,49,20.9c-.05.08-2.89,4.39-10.39,7.2a101.75,101.75,0,0,0-7.44-11.61A20.2,20.2,0,0,1,35.82,15.93Zm-4.76.58h0Zm-3.72,1.32a124.23,124.23,0,0,1,7.38,11.46,73.42,73.42,0,0,1-18.36,2.43A19.93,19.93,0,0,1,27.34,17.83Zm-11.41,18c0-.22,0-.42,0-.64a72.59,72.59,0,0,0,20.42-2.83c.57,1.11,1.11,2.25,1.61,3.38L37.2,36C26.47,39.45,21,49.11,21,49.11h0A19.79,19.79,0,0,1,15.93,35.83ZM35.82,55.71A19.8,19.8,0,0,1,23.6,51.5h0s-.19-.14-.45-.36c.14.13.3.23.45.35.08-.17,3.93-8.35,15.61-12.42l.12,0a82.58,82.58,0,0,1,4.26,15.11A19.72,19.72,0,0,1,35.82,55.71Zm11.12-3.39a86.15,86.15,0,0,0-3.87-14.2A28.81,28.81,0,0,1,55.46,39,19.89,19.89,0,0,1,46.94,52.32Z"/><rect class="cls-1" x="2" y="2" width="67.65" height="67.65" rx="12.61" ry="12.61"/></g></g></svg>