<svg xmlns="http://www.w3.org/2000/svg" viewBox="0 0 71.65 71.65"><defs><style>.cls-1{fill:none;stroke:#000;stroke-linecap:round;stroke-linejoin:round;stroke-width:4px;}</style></defs><title>Ресурс 11</title><g id="Шар_2" data-name="Шар 2"><g id="OBJECTS"><path d="M43,34.19a1.9,1.9,0,0,1-2.7-.36C38,31.51,35.68,29.27,33.44,27c-.76-.78-1.3-.83-2,0q-8,8.91-16.08,17.77l.17.24c4.45-2.46,8.93-4.87,13.34-7.42a2.15,2.15,0,0,1,3.14.5c2.11,2.25,4.37,4.38,6.54,6.59.7.71,1.25,1,2,.06,3.79-4.22,7.63-8.4,11.45-12.6,1.36-1.5,2.69-3,4.34-4.88a6.92,6.92,0,0,0-3.08,1.22C49.82,30.34,46.36,32.22,43,34.19Z"/><rect class="cls-1" x="2" y="2" width="67.65" height="67.65" rx="12.61" ry="12.61"/></g></g></svg>