<svg xmlns="http://www.w3.org/2000/svg" viewBox="0 0 71.65 71.65"><defs><style>.cls-1{fill:none;stroke:#000;stroke-linecap:round;stroke-linejoin:round;stroke-width:4px;}</style></defs><title>sm-logo-5</title><g id="Шар_2" data-name="Шар 2"><g id="OBJECTS"><path d="M53,27.68c-.78-6-4.34-10-9.91-12.26a19.65,19.65,0,0,0-13-.33,15.61,15.61,0,0,0-7.87,5.05A15.81,15.81,0,0,0,18.54,29a13.93,13.93,0,0,0,2.62,9.76A7.41,7.41,0,0,0,23.75,41c.7.37.89.28,1.08-.47s.31-1.43.53-2.12A1.68,1.68,0,0,0,25,36.58a3.49,3.49,0,0,1-.49-.82,11.56,11.56,0,0,1,3.13-14.24,12.65,12.65,0,0,1,13-1.7,9.59,9.59,0,0,1,6,7A15.51,15.51,0,0,1,45.11,38.4a7.52,7.52,0,0,1-6.29,4.17,4.12,4.12,0,0,1-4.48-3.34,5,5,0,0,1,.23-2.31c.55-1.91,1.13-3.82,1.67-5.73a9.44,9.44,0,0,0,.4-3.21,3.29,3.29,0,0,0-4.21-3.16,4.67,4.67,0,0,0-3.19,2.77,9.29,9.29,0,0,0-.18,7.26,1.81,1.81,0,0,1,.06,1c-.8,3.37-1.53,6.76-2.42,10.11a25.81,25.81,0,0,0-.85,9.81,11.46,11.46,0,0,0,.36,1.4l1.42.3s.24-.43.45-.82c1.56-3.07,2.81-5.3,3.46-8.28.3-1.4.72-2.78,1.09-4.17,0-.15,0-.37.19-.41s.25.17.33.29a5.34,5.34,0,0,0,1.52,1.4,8.41,8.41,0,0,0,5.13,1.26A12.22,12.22,0,0,0,48,43.18C52.27,38.88,53.75,33.55,53,27.68Z"/><rect class="cls-1" x="2" y="2" width="67.65" height="67.65" rx="12.61" ry="12.61"/></g></g></svg>