<svg xmlns="http://www.w3.org/2000/svg" viewBox="0 0 71.65 71.65"><defs><style>.cls-1{fill:none;stroke:#000;stroke-linecap:round;stroke-linejoin:round;stroke-width:4px;}</style></defs><title>sm-logo-6</title><g id="Шар_2" data-name="Шар 2"><g id="OBJECTS"><path d="M57.26,48.63a46.26,46.26,0,0,1-4.41-2.91,19.37,19.37,0,0,1-3-3.29c-2.7-3.68-3-6.54,2.08-8.18.43-.14.85-.4.55-1-5,.11-5.09,0-5-5.22,0-3.23.18-6.46-2.22-9.16-3.18-3.59-9-5-14-3.27C26.68,17.15,24.1,21,24,26.37a34.61,34.61,0,0,0,.08,3.81c.22,2.49-1,3.35-3.31,3.1-.52-.06-1.34-.75-1.66.37,5.63,3.3,5.9,5.07,1.72,10-1.65,1.94-3.83,3.2-6,5,3.32-.12,4.27,3.89,7.35,3.73A12.53,12.53,0,0,1,30.28,55c3.48,2.41,7.13,2.33,10.75.23,1.59-.92,3.12-2.61,4.9-2.39C50.39,53.39,53,49.82,57.26,48.63Z"/><rect class="cls-1" x="2" y="2" width="67.65" height="67.65" rx="12.61" ry="12.61"/></g></g></svg>